<svg width="57" height="57" viewBox="0 0 57 57" fill="none" xmlns="http://www.w3.org/2000/svg">
<path d="M54.55 38.06C55.71 34.98 56.35 31.65 56.35 28.17C56.35 12.64 43.71 0 28.18 0C12.65 0 0 12.64 0 28.17C0 43.7 12.64 56.34 28.17 56.34C31.65 56.34 34.98 55.7 38.06 54.54H47.08C51.2 54.54 54.55 51.2 54.55 47.07V38.05V38.06ZM3.67 28.17C3.67 14.64 14.64 3.67 28.17 3.67C41.7 3.67 52.67 14.64 52.67 28.17C52.67 28.58 52.66 28.98 52.64 29.38C52.64 29.47 52.63 29.56 52.62 29.65C52.6 29.96 52.58 30.28 52.55 30.59C52.54 30.7 52.52 30.81 52.51 30.93C52.48 31.22 52.44 31.5 52.4 31.78C52.38 31.9 52.36 32.02 52.34 32.14C52.3 32.41 52.25 32.68 52.19 32.95C52.17 33.07 52.14 33.19 52.11 33.31C52.05 33.58 51.99 33.84 51.93 34.1C51.9 34.22 51.87 34.34 51.84 34.46C51.77 34.72 51.7 34.98 51.62 35.24C51.59 35.35 51.55 35.47 51.52 35.58C51.44 35.85 51.35 36.11 51.25 36.37C51.21 36.47 51.18 36.57 51.14 36.68C51.04 36.96 50.93 37.23 50.82 37.5C50.79 37.58 50.75 37.67 50.72 37.75C50.58 38.07 50.44 38.38 50.29 38.69C50.27 38.72 50.26 38.76 50.24 38.79C49.9 39.49 49.53 40.17 49.13 40.84C49.1 40.89 49.06 40.94 49.03 40.99C48.86 41.26 48.69 41.53 48.52 41.79C48.46 41.87 48.41 41.95 48.35 42.03C48.19 42.26 48.03 42.49 47.86 42.72C47.79 42.81 47.73 42.9 47.66 42.98C47.49 43.2 47.33 43.41 47.15 43.62C47.08 43.7 47.01 43.79 46.94 43.87C46.85 43.98 46.76 44.1 46.66 44.2L40.35 37.89C41.08 36.97 41.71 35.98 42.22 34.92V34.9C42.34 34.68 42.44 34.45 42.53 34.22C42.92 33.3 43.22 32.33 43.43 31.33C43.43 31.29 43.44 31.26 43.45 31.22C43.49 31.01 43.53 30.81 43.56 30.6C43.56 30.55 43.58 30.49 43.58 30.44C43.61 30.24 43.63 30.05 43.65 29.85C43.65 29.79 43.66 29.73 43.67 29.68C43.69 29.48 43.7 29.27 43.72 29.07C43.72 29.02 43.72 28.97 43.72 28.92C43.73 28.67 43.74 28.41 43.74 28.16C43.74 19.55 36.73 12.55 28.12 12.55C19.51 12.54 12.5 19.54 12.5 28.15C12.5 36.76 19.51 43.77 28.12 43.77C32.14 43.77 35.8 42.25 38.57 39.75L44.86 46.04C40.48 50.14 34.59 52.66 28.12 52.66C14.59 52.66 3.62 41.69 3.62 28.16L3.67 28.17ZM32.12 29.66C32.27 29.25 32.37 28.81 32.39 28.35C32.48 26.03 30.67 24.06 28.35 23.97C28.29 23.97 28.23 23.97 28.17 23.97C25.9 23.97 24.06 25.75 23.97 28.02C23.91 29.54 24.64 30.57 25.09 31.05C25.53 31.53 26.5 32.34 28.02 32.4C28.08 32.4 28.14 32.4 28.2 32.4C29.07 32.4 29.88 32.14 30.55 31.68L37.39 38.52C34.94 40.7 31.71 42.02 28.2 42.02C28.02 42.02 27.83 42.02 27.64 42.01C20 41.71 14.05 35.27 14.36 27.63C14.65 20.18 20.79 14.34 28.18 14.34C28.36 14.34 28.55 14.34 28.74 14.35C36.38 14.65 42.33 21.09 42.02 28.73C41.9 31.73 40.84 34.46 39.13 36.66L32.13 29.66H32.12Z" fill="#05CD98"/>
<path d="M28.17 3.68994V12.5599C36.78 12.5599 43.79 19.5699 43.79 28.1799C43.79 28.4299 43.79 28.6899 43.77 28.9399C43.77 28.9899 43.77 29.0399 43.77 29.0899C43.76 29.2899 43.74 29.4999 43.72 29.6999C43.72 29.7599 43.71 29.8199 43.7 29.8699C43.68 30.0699 43.65 30.2599 43.63 30.4599C43.63 30.5099 43.61 30.5699 43.61 30.6199C43.58 30.8299 43.54 31.0299 43.5 31.2399C43.5 31.2799 43.49 31.3099 43.48 31.3499C43.27 32.3499 42.97 33.3199 42.58 34.2399C42.48 34.4699 42.38 34.6899 42.27 34.9199V34.9399C41.75 35.9999 41.12 36.9999 40.4 37.9099L46.71 44.2199C46.8 44.1099 46.9 44.0099 46.99 43.8999C47.06 43.8199 47.13 43.7299 47.2 43.6499C47.37 43.4399 47.54 43.2199 47.71 43.0099C47.78 42.9199 47.84 42.8399 47.91 42.7499C48.08 42.5199 48.24 42.2899 48.4 42.0599C48.46 41.9799 48.51 41.8999 48.57 41.8199C48.75 41.5599 48.92 41.2899 49.08 41.0199C49.11 40.9699 49.15 40.9199 49.18 40.8699C49.58 40.2099 49.95 39.5299 50.29 38.8199C50.31 38.7899 50.32 38.7499 50.34 38.7199C50.49 38.4099 50.63 38.0899 50.77 37.7799C50.8 37.6999 50.84 37.6099 50.87 37.5299C50.98 37.2599 51.09 36.9799 51.19 36.7099C51.23 36.6099 51.26 36.5099 51.3 36.3999C51.39 36.1399 51.48 35.8799 51.57 35.6099C51.61 35.4999 51.64 35.3799 51.67 35.2699C51.75 35.0099 51.82 34.7499 51.89 34.4899C51.92 34.3699 51.95 34.2499 51.98 34.1299C52.05 33.8699 52.11 33.5999 52.16 33.3399C52.19 33.2199 52.21 33.0999 52.24 32.9799C52.29 32.7099 52.34 32.4399 52.39 32.1699C52.41 32.0499 52.43 31.9299 52.45 31.8099C52.49 31.5299 52.53 31.2399 52.56 30.9599C52.57 30.8499 52.59 30.7399 52.6 30.6199C52.63 30.3099 52.65 29.9999 52.67 29.6799C52.67 29.5899 52.68 29.4999 52.69 29.4099C52.71 29.0099 52.72 28.5999 52.72 28.1899C52.72 14.6599 41.75 3.68994 28.22 3.68994H28.17Z" fill="url(#paint0_linear_23_2124)"/>
<defs>
<linearGradient id="paint0_linear_23_2124" x1="39.41" y1="40.0599" x2="40.76" y2="8.20994" gradientUnits="userSpaceOnUse">
<stop stop-color="#05CD98"/>
<stop offset="0.82" stop-color="#05CD98" stop-opacity="0"/>
</linearGradient>
</defs>
</svg>
