<?xml version="1.0" encoding="UTF-8"?><svg id="Capa_2" xmlns="http://www.w3.org/2000/svg" xmlns:xlink="http://www.w3.org/1999/xlink" viewBox="0 0 602.54 62.27"><defs><style>.cls-1{fill:url(#Degradado_sin_nombre_11-15);}.cls-2{fill:url(#Degradado_sin_nombre_11);}.cls-3{fill:#b0ead2;}.cls-4{fill:#fff;}.cls-5{fill:url(#Degradado_sin_nombre_11-22);}.cls-6{fill:#05cd98;}.cls-7{fill:url(#Degradado_sin_nombre_11-7);}.cls-8{fill:url(#Degradado_sin_nombre_11-19);}.cls-9{fill:url(#Degradado_sin_nombre_11-10);}.cls-10{fill:url(#Degradado_sin_nombre_11-5);}.cls-11{fill:url(#Degradado_sin_nombre_11-2);}.cls-12{fill:url(#Degradado_sin_nombre_11-21);}.cls-13{fill:url(#Degradado_sin_nombre_11-14);}.cls-14{fill:url(#Degradado_sin_nombre_11-17);}.cls-15{fill:#00ce97;}.cls-16{fill:url(#Degradado_sin_nombre_11-8);}.cls-17{fill:url(#Degradado_sin_nombre_11-18);}.cls-18{fill:url(#Degradado_sin_nombre_11-16);}.cls-19{fill:url(#Degradado_sin_nombre_11-6);}.cls-20{fill:url(#Degradado_sin_nombre_11-12);}.cls-21{fill:url(#Degradado_sin_nombre_11-20);}.cls-22{fill:url(#Degradado_sin_nombre_11-9);}.cls-23{fill:url(#Degradado_sin_nombre_11-13);}.cls-24{fill:#1e2321;}.cls-25{fill:url(#Degradado_sin_nombre_11-3);}.cls-26{fill:url(#Degradado_sin_nombre_11-4);}.cls-27{fill:url(#Degradado_sin_nombre_11-11);}</style><linearGradient id="Degradado_sin_nombre_11" x1="38.11" y1="42.84" x2="39.47" y2="10.99" gradientUnits="userSpaceOnUse"><stop offset="0" stop-color="#05cd98"/><stop offset=".82" stop-color="#05cd98" stop-opacity="0"/></linearGradient><linearGradient id="Degradado_sin_nombre_11-2" x1="46.25" y1="43.19" x2="47.6" y2="11.33" xlink:href="#Degradado_sin_nombre_11"/><linearGradient id="Degradado_sin_nombre_11-3" x1="51.16" y1="43.4" x2="52.51" y2="11.54" xlink:href="#Degradado_sin_nombre_11"/><linearGradient id="Degradado_sin_nombre_11-4" x1="54.16" y1="43.53" x2="55.51" y2="11.67" xlink:href="#Degradado_sin_nombre_11"/><linearGradient id="Degradado_sin_nombre_11-5" x1="54.71" y1="43.55" x2="56.06" y2="11.69" xlink:href="#Degradado_sin_nombre_11"/><linearGradient id="Degradado_sin_nombre_11-6" x1="54.46" y1="43.54" x2="55.81" y2="11.68" xlink:href="#Degradado_sin_nombre_11"/><linearGradient id="Degradado_sin_nombre_11-7" x1="53.38" y1="43.49" x2="54.73" y2="11.64" xlink:href="#Degradado_sin_nombre_11"/><linearGradient id="Degradado_sin_nombre_11-8" x1="53.8" y1="43.51" x2="55.16" y2="11.65" xlink:href="#Degradado_sin_nombre_11"/><linearGradient id="Degradado_sin_nombre_11-9" x1="55.11" y1="43.57" x2="56.46" y2="11.71" xlink:href="#Degradado_sin_nombre_11"/><linearGradient id="Degradado_sin_nombre_11-10" x1="55.12" y1="43.57" x2="56.47" y2="11.71" xlink:href="#Degradado_sin_nombre_11"/><linearGradient id="Degradado_sin_nombre_11-11" x1="55.03" y1="43.56" x2="56.38" y2="11.71" xlink:href="#Degradado_sin_nombre_11"/><linearGradient id="Degradado_sin_nombre_11-12" x1="54.9" y1="43.56" x2="56.25" y2="11.7" xlink:href="#Degradado_sin_nombre_11"/><linearGradient id="Degradado_sin_nombre_11-13" x1="46.06" y1="43.18" x2="47.41" y2="11.32" xlink:href="#Degradado_sin_nombre_11"/><linearGradient id="Degradado_sin_nombre_11-14" x1="44.99" y1="43.14" x2="46.34" y2="11.28" xlink:href="#Degradado_sin_nombre_11"/><linearGradient id="Degradado_sin_nombre_11-15" x1="50.51" y1="43.37" x2="51.86" y2="11.51" xlink:href="#Degradado_sin_nombre_11"/><linearGradient id="Degradado_sin_nombre_11-16" x1="45.27" y1="43.15" x2="46.62" y2="11.29" xlink:href="#Degradado_sin_nombre_11"/><linearGradient id="Degradado_sin_nombre_11-17" x1="46.16" y1="43.19" x2="47.51" y2="11.33" xlink:href="#Degradado_sin_nombre_11"/><linearGradient id="Degradado_sin_nombre_11-18" x1="46.22" y1="43.19" x2="47.57" y2="11.33" xlink:href="#Degradado_sin_nombre_11"/><linearGradient id="Degradado_sin_nombre_11-19" x1="52.63" y1="43.46" x2="53.98" y2="11.6" xlink:href="#Degradado_sin_nombre_11"/><linearGradient id="Degradado_sin_nombre_11-20" x1="51.79" y1="43.42" x2="53.14" y2="11.57" xlink:href="#Degradado_sin_nombre_11"/><linearGradient id="Degradado_sin_nombre_11-21" x1="42.37" y1="43.02" x2="43.72" y2="11.17" xlink:href="#Degradado_sin_nombre_11"/><linearGradient id="Degradado_sin_nombre_11-22" x1="46.66" y1="43.21" x2="48.01" y2="11.35" xlink:href="#Degradado_sin_nombre_11"/></defs><g id="OBJECTS"><path class="cls-6" d="M3.97,46.32v3.72c0,4.12,3.34,7.47,7.47,7.47h3.18c-4.42-2.78-8.09-6.63-10.65-11.19Z"/><path class="cls-6" d="M57.51,14.62v-3.18c0-4.12-3.34-7.47-7.47-7.47h-3.72c4.56,2.56,8.41,6.23,11.19,10.65Z"/><path class="cls-6" d="M15.95,3.97h-4.51c-4.12,0-7.47,3.34-7.47,7.47v4.51c2.81-5.01,6.97-9.16,11.98-11.98Z"/><path class="cls-24" d="M41.02,57.51c-3.08,1.16-6.41,1.8-9.89,1.8-15.53,0-28.17-12.64-28.17-28.17S15.6,2.96,31.13,2.96s28.17,12.64,28.17,28.17c0,3.48-.64,6.81-1.8,9.89v6.62c3.01-4.79,4.76-10.45,4.76-16.51s-1.75-11.72-4.76-16.51c-2.78-4.42-6.63-8.09-11.19-10.65-4.5-2.52-9.68-3.97-15.19-3.97s-10.69,1.45-15.19,3.97c-5.01,2.81-9.16,6.97-11.98,11.98C1.45,20.44,0,25.62,0,31.13s1.45,10.69,3.97,15.19c2.56,4.56,6.23,8.41,10.65,11.19,4.79,3.01,10.45,4.76,16.51,4.76s11.72-1.75,16.51-4.76h-6.62Z"/><path class="cls-24" d="M50.83,45.7c-.07.09-.13.18-.2.26.07-.09.13-.17.2-.26Z"/><path class="cls-24" d="M43.33,40.87h0c.73-.91,1.35-1.9,1.87-2.96-.51,1.06-1.14,2.05-1.87,2.96Z"/><path class="cls-24" d="M50.13,46.61c-.07.08-.14.17-.21.25.07-.08.14-.17.21-.25Z"/><path class="cls-24" d="M45.21,37.89c.11-.22.21-.45.31-.68-.1.23-.2.45-.31.68Z"/><path class="cls-24" d="M55.37,34.75c-.02.12-.04.24-.06.36.02-.12.04-.24.06-.36Z"/><path class="cls-24" d="M52.1,43.82c-.03.05-.07.1-.1.15.03-.05.07-.1.1-.15Z"/><path class="cls-24" d="M55.17,35.92c-.02.12-.05.24-.08.36.03-.12.05-.24.08-.36Z"/><path class="cls-24" d="M46.75,31.14c0,.26,0,.51-.02.76.01-.25.02-.5.02-.76,0,0,0,0,0,0Z"/><path class="cls-24" d="M45.52,37.2c.39-.92.69-1.89.9-2.89-.21,1-.51,1.97-.9,2.89Z"/><path class="cls-24" d="M51.49,44.77c-.06.08-.11.16-.17.24.06-.08.11-.16.17-.24Z"/><path class="cls-24" d="M54.22,39.35c-.04.1-.07.2-.11.31.04-.1.07-.2.11-.31Z"/><path class="cls-24" d="M54.91,37.08c-.03.12-.06.24-.09.36.03-.12.06-.24.09-.36Z"/><path class="cls-24" d="M46.45,34.21c.04-.21.08-.41.11-.62-.03.21-.07.41-.11.62Z"/><path class="cls-24" d="M47.88,49.02l-6.29-6.29c-2.77,2.5-6.44,4.02-10.45,4.02-8.61,0-15.62-7.01-15.62-15.62s7.01-15.62,15.62-15.62V6.65c13.53,0,24.5,10.97,24.5,24.5,0,0,0,0,0,0,0-13.53-10.97-24.5-24.5-24.5S6.63,17.6,6.63,31.13s10.97,24.5,24.5,24.5c6.48,0,12.36-2.52,16.74-6.62Z"/><path class="cls-24" d="M53.79,40.48c-.03.08-.07.17-.1.25.03-.08.07-.17.1-.25Z"/><path class="cls-24" d="M46.58,33.43c.03-.2.05-.39.07-.59-.02.2-.05.39-.07.59Z"/><path class="cls-24" d="M55.61,32.36c0,.09-.01.18-.02.27,0-.09.01-.18.02-.27Z"/><path class="cls-24" d="M53.26,41.67s-.03.07-.05.1c.02-.03.03-.07.05-.1Z"/><path class="cls-24" d="M46.68,32.67c.02-.2.03-.41.05-.61-.01.2-.03.41-.05.61Z"/><path class="cls-24" d="M55.52,33.56c-.01.11-.03.22-.04.34.01-.11.03-.22.04-.34Z"/><path class="cls-24" d="M54.59,38.22c-.03.11-.07.23-.1.34.04-.11.07-.23.1-.34Z"/><path class="cls-24" d="M31.68,17.3c-.19,0-.37-.01-.56-.01-7.39,0-13.53,5.84-13.82,13.29-.3,7.64,5.64,14.08,13.28,14.38.19,0,.37.01.56.01,3.51,0,6.74-1.32,9.19-3.5l-6.84-6.84c-.67.45-1.48.72-2.35.72-.06,0-.12,0-.18,0-1.52-.06-2.49-.87-2.93-1.35-.44-.48-1.18-1.51-1.12-3.03.09-2.27,1.94-4.05,4.2-4.05.06,0,.12,0,.18,0,2.32.09,4.14,2.06,4.04,4.38-.02.46-.11.9-.27,1.31l7,7c1.71-2.2,2.77-4.93,2.89-7.93.3-7.64-5.64-14.08-13.28-14.38Z"/><path class="cls-6" d="M57.51,41.02c1.16-3.08,1.8-6.41,1.8-9.89,0-15.53-12.64-28.17-28.17-28.17S2.96,15.6,2.96,31.13s12.64,28.17,28.17,28.17c3.48,0,6.81-.64,9.89-1.8h9.02c4.12,0,7.47-3.34,7.47-7.47v-9.02ZM6.63,31.13c0-13.53,10.97-24.5,24.5-24.5s24.5,10.97,24.5,24.5c0,0,0,0,0,0,0,0,0,0,0,0,0,.41-.01.81-.03,1.21,0,.09-.01.18-.02.27-.02.31-.04.63-.07.94-.01.11-.03.22-.04.34-.03.29-.07.57-.11.85-.02.12-.04.24-.06.36-.04.27-.09.54-.15.81-.02.12-.05.24-.08.36-.06.27-.12.53-.18.79-.03.12-.06.24-.09.36-.07.26-.14.52-.22.78-.03.11-.07.23-.1.34-.08.27-.17.53-.27.79-.04.1-.07.2-.11.31-.1.28-.21.55-.32.82-.03.08-.07.17-.1.25-.14.32-.28.63-.43.94-.02.03-.03.07-.05.1-.34.7-.71,1.38-1.11,2.05-.03.05-.07.1-.1.15-.17.27-.34.54-.51.8-.06.08-.11.16-.17.24-.16.23-.32.46-.49.69-.07.09-.13.18-.2.26-.17.22-.33.43-.51.64-.07.08-.14.17-.21.25-.09.11-.18.23-.28.33l-6.31-6.31s0,0,0,0h0c.73-.92,1.36-1.91,1.87-2.97v-.02c.12-.22.22-.45.31-.68,0,0,0,0,0,0,.39-.92.69-1.89.9-2.89,0-.04.01-.07.02-.11.04-.21.08-.41.11-.62,0-.05.02-.11.02-.16.03-.2.05-.39.07-.59,0-.06.01-.12.02-.17.02-.2.03-.41.05-.61,0-.05,0-.1,0-.15.01-.25.02-.51.02-.76,0-8.61-7.01-15.61-15.62-15.61h0c-8.61-.01-15.62,6.99-15.62,15.6s7.01,15.62,15.62,15.62c4.02,0,7.68-1.52,10.45-4.02l6.29,6.29c-4.38,4.1-10.27,6.62-16.74,6.62-13.53,0-24.5-10.97-24.5-24.5ZM35.08,32.62c.15-.41.25-.85.27-1.31.09-2.32-1.72-4.29-4.04-4.38-.06,0-.12,0-.18,0-2.27,0-4.11,1.78-4.2,4.05-.06,1.52.67,2.55,1.12,3.03.44.48,1.41,1.29,2.93,1.35.06,0,.12,0,.18,0,.87,0,1.68-.26,2.35-.72l6.84,6.84c-2.45,2.18-5.68,3.5-9.19,3.5-.18,0-.37,0-.56-.01-7.64-.3-13.59-6.74-13.28-14.38.29-7.45,6.43-13.29,13.82-13.29.18,0,.37,0,.56.01,7.64.3,13.59,6.74,13.28,14.38-.12,3-1.18,5.73-2.89,7.93l-7-7Z"/><path class="cls-6" d="M31.13,15.52h0c8.61.01,15.61,7.02,15.62,15.62,0,0,0,0,0,0,0-8.61-7.01-15.62-15.62-15.62Z"/><path class="cls-2" d="M31.13,15.52h0c8.61.01,15.61,7.02,15.62,15.62,0,0,0,0,0,0,0-8.61-7.01-15.62-15.62-15.62Z"/><path class="cls-6" d="M46.72,32.06c0-.05,0-.1,0-.15,0,.05,0,.1,0,.15Z"/><path class="cls-11" d="M46.72,32.06c0-.05,0-.1,0-.15,0,.05,0,.1,0,.15Z"/><path class="cls-6" d="M51.32,45.02c-.16.23-.32.46-.49.69.17-.23.33-.45.49-.69Z"/><path class="cls-25" d="M51.32,45.02c-.16.23-.32.46-.49.69.17-.23.33-.45.49-.69Z"/><path class="cls-6" d="M54.49,38.56c-.08.27-.17.53-.27.79.09-.26.18-.52.27-.79Z"/><path class="cls-26" d="M54.49,38.56c-.08.27-.17.53-.27.79.09-.26.18-.52.27-.79Z"/><path class="cls-6" d="M55.09,36.29c-.06.27-.12.53-.18.79.07-.26.13-.53.18-.79Z"/><path class="cls-10" d="M55.09,36.29c-.06.27-.12.53-.18.79.07-.26.13-.53.18-.79Z"/><path class="cls-6" d="M54.82,37.44c-.07.26-.14.52-.22.78.08-.26.15-.52.22-.78Z"/><path class="cls-19" d="M54.82,37.44c-.07.26-.14.52-.22.78.08-.26.15-.52.22-.78Z"/><path class="cls-6" d="M53.69,40.73c-.14.32-.28.63-.43.94.15-.31.29-.63.43-.94Z"/><path class="cls-7" d="M53.69,40.73c-.14.32-.28.63-.43.94.15-.31.29-.63.43-.94Z"/><path class="cls-6" d="M54.11,39.66c-.1.28-.21.55-.32.82.11-.27.22-.55.32-.82Z"/><path class="cls-16" d="M54.11,39.66c-.1.28-.21.55-.32.82.11-.27.22-.55.32-.82Z"/><path class="cls-6" d="M55.59,32.63c-.02.31-.04.63-.07.94.03-.31.05-.62.07-.94Z"/><path class="cls-22" d="M55.59,32.63c-.02.31-.04.63-.07.94.03-.31.05-.62.07-.94Z"/><path class="cls-6" d="M55.64,31.15s0,0,0,0c0,.41-.01.81-.03,1.22.02-.4.03-.8.03-1.21Z"/><path class="cls-9" d="M55.64,31.15s0,0,0,0c0,.41-.01.81-.03,1.22.02-.4.03-.8.03-1.21Z"/><path class="cls-6" d="M55.48,33.9c-.03.29-.07.57-.11.85.04-.28.08-.57.11-.85Z"/><path class="cls-27" d="M55.48,33.9c-.03.29-.07.57-.11.85.04-.28.08-.57.11-.85Z"/><path class="cls-6" d="M55.31,35.11c-.04.27-.09.54-.15.81.05-.27.1-.54.15-.81Z"/><path class="cls-20" d="M55.31,35.11c-.04.27-.09.54-.15.81.05-.27.1-.54.15-.81Z"/><path class="cls-6" d="M46.42,34.32s.01-.07.02-.11c0,.04-.01.07-.02.11Z"/><path class="cls-23" d="M46.42,34.32s.01-.07.02-.11c0,.04-.01.07-.02.11Z"/><path class="cls-6" d="M45.2,37.91v-.02s0,.01,0,.02Z"/><path class="cls-13" d="M45.2,37.91v-.02s0,.01,0,.02Z"/><path class="cls-6" d="M50.64,45.97c-.17.22-.33.43-.51.64.17-.21.34-.43.51-.64Z"/><path class="cls-1" d="M50.64,45.97c-.17.22-.33.43-.51.64.17-.21.34-.43.51-.64Z"/><path class="cls-6" d="M45.52,37.21s0,0,0,0c0,0,0,0,0,0Z"/><path class="cls-18" d="M45.52,37.21s0,0,0,0c0,0,0,0,0,0Z"/><path class="cls-6" d="M46.56,33.59c0-.05.02-.11.02-.16,0,.05-.02.11-.02.16Z"/><path class="cls-14" d="M46.56,33.59c0-.05.02-.11.02-.16,0,.05-.02.11-.02.16Z"/><path class="cls-6" d="M46.66,32.84c0-.06.01-.12.02-.17,0,.06-.01.12-.02.17Z"/><path class="cls-17" d="M46.66,32.84c0-.06.01-.12.02-.17,0,.06-.01.12-.02.17Z"/><path class="cls-6" d="M53.21,41.77c-.34.7-.71,1.38-1.11,2.05.4-.66.77-1.34,1.11-2.05Z"/><path class="cls-8" d="M53.21,41.77c-.34.7-.71,1.38-1.11,2.05.4-.66.77-1.34,1.11-2.05Z"/><path class="cls-6" d="M52.01,43.97c-.17.27-.34.54-.51.8.18-.26.35-.53.51-.8Z"/><path class="cls-21" d="M52.01,43.97c-.17.27-.34.54-.51.8.18-.26.35-.53.51-.8Z"/><path class="cls-24" d="M31.13,6.65v8.87c8.61,0,15.62,7.01,15.62,15.62,0,0,0,0,0,0,0,0,0,0,0,0,0,.25,0,.51-.02.76,0,.05,0,.1,0,.15-.01.2-.03.41-.05.61,0,.06-.01.12-.02.17-.02.2-.05.39-.07.59,0,.05-.02.11-.02.16-.03.21-.07.41-.11.62,0,.04-.01.07-.02.11-.21,1-.51,1.97-.9,2.89,0,0,0,0,0,0-.1.23-.2.45-.31.68v.02c-.52,1.06-1.15,2.06-1.87,2.97l6.31,6.31c.09-.11.19-.21.28-.32.07-.08.14-.17.21-.25.17-.21.34-.43.51-.64.07-.09.13-.17.2-.26.17-.23.33-.46.49-.69.06-.08.11-.16.17-.24.18-.26.35-.53.51-.8.03-.05.07-.1.1-.15.4-.66.77-1.34,1.11-2.05.02-.03.03-.07.05-.1.15-.31.29-.63.43-.94.03-.08.07-.17.1-.25.11-.27.22-.55.32-.82.04-.1.07-.2.11-.31.09-.26.18-.52.27-.79.04-.11.07-.23.1-.34.08-.26.15-.52.22-.78.03-.12.06-.24.09-.36.07-.26.13-.53.18-.79.03-.12.05-.24.08-.36.05-.27.1-.54.15-.81.02-.12.04-.24.06-.36.04-.28.08-.57.11-.85.01-.11.03-.22.04-.34.03-.31.05-.62.07-.94,0-.09.01-.18.02-.27.02-.4.03-.81.03-1.22,0-13.53-10.97-24.5-24.5-24.5Z"/><path class="cls-12" d="M31.13,6.65v8.87c8.61,0,15.62,7.01,15.62,15.62,0,0,0,0,0,0,0,0,0,0,0,0,0,.25,0,.51-.02.76,0,.05,0,.1,0,.15-.01.2-.03.41-.05.61,0,.06-.01.12-.02.17-.02.2-.05.39-.07.59,0,.05-.02.11-.02.16-.03.21-.07.41-.11.62,0,.04-.01.07-.02.11-.21,1-.51,1.97-.9,2.89,0,0,0,0,0,0-.1.23-.2.45-.31.68v.02c-.52,1.06-1.15,2.06-1.87,2.97l6.31,6.31c.09-.11.19-.21.28-.32.07-.08.14-.17.21-.25.17-.21.34-.43.51-.64.07-.09.13-.17.2-.26.17-.23.33-.46.49-.69.06-.08.11-.16.17-.24.18-.26.35-.53.51-.8.03-.05.07-.1.1-.15.4-.66.77-1.34,1.11-2.05.02-.03.03-.07.05-.1.15-.31.29-.63.43-.94.03-.08.07-.17.1-.25.11-.27.22-.55.32-.82.04-.1.07-.2.11-.31.09-.26.18-.52.27-.79.04-.11.07-.23.1-.34.08-.26.15-.52.22-.78.03-.12.06-.24.09-.36.07-.26.13-.53.18-.79.03-.12.05-.24.08-.36.05-.27.1-.54.15-.81.02-.12.04-.24.06-.36.04-.28.08-.57.11-.85.01-.11.03-.22.04-.34.03-.31.05-.62.07-.94,0-.09.01-.18.02-.27.02-.4.03-.81.03-1.22,0-13.53-10.97-24.5-24.5-24.5Z"/><path class="cls-6" d="M43.34,40.87s0,0,0,0l6.31,6.31c.1-.11.18-.22.28-.33-.09.11-.19.21-.28.32l-6.31-6.31Z"/><path class="cls-5" d="M43.34,40.87s0,0,0,0l6.31,6.31c.1-.11.18-.22.28-.33-.09.11-.19.21-.28.32l-6.31-6.31Z"/><path class="cls-15" d="M87.6,36.75c1.12,0,2.1-.15,2.93-.46.83-.31,1.58-.7,2.23-1.16.65-.47,1.25-.98,1.79-1.53.54-.55,1.1-1.06,1.66-1.53.56-.47,1.18-.86,1.85-1.16.67-.31,1.44-.46,2.31-.46v17.78h-5.6v-10.27c-1.01.78-2.19,1.4-3.53,1.87-1.34.47-2.82.7-4.45.7-1.88,0-3.57-.27-5.05-.8-1.48-.54-2.73-1.23-3.75-2.09-1.01-.86-1.78-1.81-2.31-2.85-.52-1.04-.79-2.09-.79-3.13v-3.69c0-1.04.26-2.09.79-3.13.53-1.04,1.3-1.99,2.31-2.85,1.01-.86,2.26-1.55,3.75-2.09,1.49-.53,3.17-.8,5.05-.8,1.49,0,2.92.23,4.29.7,1.38.47,2.61,1.1,3.69,1.91l.54-2.21h5.05v7.83h-4.4c-.36-.78-.86-1.44-1.49-1.99-.63-.55-1.33-1-2.09-1.36-.76-.36-1.56-.63-2.39-.8-.83-.17-1.63-.26-2.39-.26-1.2,0-2.24.15-3.12.46-.89.31-1.63.71-2.23,1.2-.6.49-1.04,1.04-1.33,1.64-.29.6-.43,1.18-.43,1.75v3.69c0,.56.15,1.14.43,1.75.29.6.73,1.15,1.33,1.65.6.49,1.34.9,2.23,1.22.89.32,1.93.48,3.12.48Z"/><path class="cls-15" d="M110.79,19.09v12.16c0,.56.15,1.14.46,1.75.31.6.76,1.15,1.36,1.64.6.5,1.34.9,2.23,1.2.89.31,1.91.46,3.07.46,1.09,0,2.06-.14,2.93-.42.87-.28,1.62-.66,2.25-1.12.63-.47,1.12-.99,1.47-1.57.34-.58.52-1.14.52-1.71v-12.4h5.6v20.63h-5.05l-.54-2.25c-1.09.83-2.33,1.48-3.72,1.95-1.39.47-2.83.7-4.32.7-3.8,0-6.73-.78-8.77-2.33-2.05-1.55-3.07-3.73-3.07-6.54v-12.16h5.6Z"/><path class="cls-15" d="M154.41,37.55c-1.01.75-2.26,1.36-3.75,1.85-1.49.48-3.22.72-5.21.72-1.41,0-2.73-.15-3.97-.46-1.23-.31-2.3-.73-3.21-1.26-.91-.53-1.61-1.19-2.12-1.97-.51-.78-.76-1.62-.76-2.53,0-1.04.29-1.97.87-2.77.58-.8,1.36-1.48,2.34-2.03.98-.55,2.12-.96,3.42-1.24,1.3-.28,2.68-.42,4.13-.42h2.77c.51,0,1.09-.05,1.77-.14.67-.09,1.32-.24,1.96-.44.63-.2,1.17-.47,1.6-.8.43-.33.65-.73.65-1.18,0-.4-.16-.75-.49-1.04-.33-.29-.75-.54-1.28-.74-.53-.2-1.13-.35-1.82-.46-.69-.11-1.41-.16-2.17-.16-.87,0-1.72.07-2.55.2-.83.13-1.58.34-2.25.62-.67.28-1.21.64-1.63,1.06-.42.43-.62.92-.62,1.48h-5.6c0-1.2.36-2.25,1.09-3.15.72-.9,1.67-1.64,2.82-2.23,1.16-.59,2.48-1.03,3.97-1.32,1.48-.29,3.01-.44,4.56-.44s2.92.13,4.32.4c1.39.27,2.64.67,3.75,1.2,1.1.54,1.99,1.2,2.66,1.99.67.79,1,1.72,1,2.79s-.36,1.93-1.09,2.65c-.72.72-1.64,1.3-2.74,1.73-1.11.43-2.3.74-3.59.92-1.29.19-2.49.28-3.61.28h-3.69c-.54,0-1.1.06-1.66.18-.56.12-1.09.29-1.58.52s-.89.52-1.2.86c-.31.35-.46.76-.46,1.24,0,.54.2.99.6,1.36.4.38.89.68,1.47.92.58.24,1.2.42,1.87.52.67.11,1.28.16,1.82.16.8,0,1.67-.1,2.63-.3.96-.2,1.87-.49,2.74-.86s1.61-.85,2.23-1.42c.62-.58.98-1.22,1.09-1.95h4.4v7.83h-4.94l-.54-2.17Z"/><path class="cls-15" d="M185.16,39.72v-12.16c0-.56-.15-1.14-.43-1.75-.29-.6-.73-1.15-1.33-1.65-.6-.49-1.34-.9-2.23-1.22-.89-.32-1.93-.48-3.12-.48-1.05,0-2.02.15-2.91.44-.89.29-1.65.67-2.28,1.12-.63.46-1.12.98-1.47,1.57-.34.59-.52,1.16-.52,1.73v12.4h-5.6v-20.63h5.05l.54,2.17c1.16-.86,2.51-1.5,4.05-1.93,1.54-.43,3.12-.64,4.75-.64,1.41,0,2.79.17,4.13.52,1.34.35,2.53.88,3.56,1.61,1.03.72,1.86,1.65,2.47,2.77.62,1.12.92,2.45.92,3.97v12.16h-5.6Z"/><path class="cls-15" d="M212.32,40c-.15.03-.38.05-.71.06-.33.01-.67.03-1.03.04-.36.01-.71.02-1.03.02h-.76c-3.15,0-5.4-.59-6.74-1.79-1.34-1.19-2.01-3.02-2.01-5.48v-10.27h-5.54v-2.49c.9,0,1.81-.09,2.72-.26.9-.17,1.71-.48,2.42-.92.71-.44,1.28-1.05,1.71-1.83.43-.78.65-1.75.65-2.93h3.64v4.94h6.9v3.49h-6.9v10.19c0,1.31.34,2.19,1.03,2.63.69.44,1.77.66,3.26.66h3.04l-.65,3.93Z"/><path class="cls-3" d="M252.22,26.19c-.07.11-.15.2-.24.28-.09.08-.17.17-.24.28-.76.86-1.49,1.79-2.2,2.79-.71,1-1.46,2-2.25,2.99-.8.99-1.67,1.94-2.61,2.85-.94.91-2.02,1.72-3.23,2.43-1.21.71-2.6,1.27-4.16,1.69-1.56.41-3.37.62-5.43.62-1.45,0-2.99-.18-4.62-.54-1.63-.36-3.12-.91-4.45-1.65-1.34-.74-2.45-1.65-3.34-2.75-.89-1.1-1.33-2.38-1.33-3.85v-3.69c0-1.04.29-2.09.87-3.13.58-1.04,1.39-1.99,2.44-2.85,1.05-.86,2.34-1.55,3.86-2.09,1.52-.54,3.22-.8,5.11-.8h.92c1.63,0,3.19.23,4.67.68,1.48.45,2.79,1.07,3.91,1.85.94.67,1.67,1.33,2.17,1.99.51.66.87,1.34,1.09,2.05.22.71.34,1.45.38,2.23.04.78.05,1.6.05,2.49v.56h-19.88c0,.78.17,1.51.52,2.21.34.7.88,1.3,1.6,1.83.72.52,1.63.94,2.72,1.24,1.09.31,2.35.46,3.8.46,2.1,0,3.92-.27,5.46-.8,1.54-.54,2.9-1.24,4.07-2.11,1.18-.87,2.24-1.86,3.18-2.97.94-1.11,1.85-2.23,2.72-3.35v-8.03h5.05l.54,2.17c.69-.51,1.45-.94,2.28-1.28l.05-.04c.98-.45,2.01-.78,3.1-.96,1.09-.19,2.21-.28,3.37-.28,1.41,0,2.79.17,4.13.52,1.34.35,2.53.88,3.56,1.61,1.03.72,1.86,1.65,2.47,2.77.62,1.12.92,2.45.92,3.97v12.16h-5.6v-12.16c0-.56-.15-1.14-.43-1.75-.29-.6-.73-1.15-1.33-1.65-.6-.49-1.34-.9-2.23-1.22-.89-.32-1.93-.48-3.12-.48-1.92,0-3.52.35-4.81,1.04-1.29.7-2.45,1.59-3.5,2.69ZM238.15,27.08c0-.7-.18-1.33-.54-1.91-.36-.57-.86-1.06-1.49-1.46-.63-.4-1.36-.71-2.17-.92-.81-.21-1.68-.32-2.58-.32-1.09,0-2.08.14-2.99.42-.91.28-1.69.64-2.36,1.08-.67.44-1.2.94-1.58,1.48-.38.55-.61,1.09-.68,1.62h14.4ZM253.36,28.36v11.36h-5.6v-4.09l5.6-7.26Z"/><path class="cls-3" d="M294.81,40c-.15.03-.38.05-.71.06-.33.01-.67.03-1.03.04-.36.01-.71.02-1.03.02h-.76c-3.15,0-5.4-.59-6.74-1.79-1.34-1.19-2.01-3.02-2.01-5.48v-10.27h-5.54v-2.49c.9,0,1.81-.09,2.72-.26.9-.17,1.71-.48,2.42-.92.71-.44,1.28-1.05,1.71-1.83.43-.78.65-1.75.65-2.93h3.64v4.94h6.9v3.49h-6.9v10.19c0,1.31.34,2.19,1.03,2.63.69.44,1.77.66,3.26.66h3.04l-.65,3.93Z"/><path class="cls-4" d="M321.22,22.29v1.47h-4.92v16.25h-1.77v-16.25h-4.94v-1.47h11.64Z"/><path class="cls-4" d="M335.95,23.73v6.62h6.72v1.47h-6.72v6.72h7.48v1.47h-9.25v-17.74h9.25v1.47h-7.48Z"/><path class="cls-4" d="M357.39,26.46c.76-1.38,1.8-2.45,3.12-3.22,1.32-.77,2.79-1.15,4.41-1.15,1.98,0,3.67.47,5.08,1.41s2.44,2.26,3.08,3.97h-2.08c-.51-1.2-1.28-2.14-2.32-2.81s-2.29-1.01-3.76-1.01c-1.3,0-2.47.3-3.51.91s-1.85,1.48-2.45,2.62c-.59,1.14-.89,2.46-.89,3.97s.3,2.82.89,3.95c.59,1.13,1.41,2,2.45,2.61,1.04.61,2.21.91,3.51.91,1.47,0,2.73-.33,3.76-1,1.04-.67,1.81-1.59,2.32-2.78h2.08c-.64,1.69-1.67,3-3.09,3.93-1.42.93-3.11,1.39-5.07,1.39-1.62,0-3.09-.38-4.41-1.15-1.32-.77-2.36-1.84-3.12-3.21-.76-1.37-1.14-2.92-1.14-4.66s.38-3.3,1.14-4.68Z"/><path class="cls-4" d="M399.9,22.29v17.72h-1.77v-8.29h-9.61v8.29h-1.77v-17.72h1.77v7.96h9.61v-7.96h1.77Z"/><path class="cls-4" d="M427.45,40.01h-1.77l-9.81-14.91v14.91h-1.77v-17.72h1.77l9.81,14.88v-14.88h1.77v17.72Z"/><path class="cls-4" d="M445.12,39.03c-1.34-.77-2.39-1.84-3.16-3.22s-1.15-2.94-1.15-4.68.38-3.3,1.15-4.68,1.82-2.45,3.16-3.22c1.33-.77,2.82-1.15,4.46-1.15s3.15.38,4.49,1.15,2.38,1.84,3.14,3.22c.76,1.38,1.14,2.94,1.14,4.68s-.38,3.3-1.14,4.68c-.76,1.38-1.81,2.45-3.14,3.22s-2.83,1.15-4.49,1.15-3.13-.38-4.46-1.15ZM453.13,37.73c1.05-.61,1.88-1.48,2.48-2.62.61-1.14.91-2.46.91-3.97s-.3-2.82-.91-3.95c-.61-1.13-1.44-2-2.48-2.61-1.05-.61-2.23-.91-3.55-.91s-2.5.3-3.55.91c-1.05.61-1.88,1.48-2.48,2.61-.61,1.13-.91,2.45-.91,3.95s.3,2.83.91,3.97c.61,1.14,1.44,2.02,2.48,2.62,1.05.61,2.23.91,3.55.91s2.5-.3,3.55-.91Z"/><path class="cls-4" d="M473.51,38.56h6.36v1.44h-8.14v-17.72h1.77v16.27Z"/><path class="cls-4" d="M496.05,39.03c-1.34-.77-2.39-1.84-3.16-3.22s-1.15-2.94-1.15-4.68.38-3.3,1.15-4.68,1.82-2.45,3.16-3.22c1.33-.77,2.82-1.15,4.46-1.15s3.15.38,4.49,1.15,2.38,1.84,3.14,3.22c.76,1.38,1.14,2.94,1.14,4.68s-.38,3.3-1.14,4.68c-.76,1.38-1.81,2.45-3.14,3.22s-2.83,1.15-4.49,1.15-3.13-.38-4.46-1.15ZM504.06,37.73c1.05-.61,1.88-1.48,2.48-2.62.61-1.14.91-2.46.91-3.97s-.3-2.82-.91-3.95c-.61-1.13-1.44-2-2.48-2.61-1.05-.61-2.23-.91-3.55-.91s-2.5.3-3.55.91c-1.05.61-1.88,1.48-2.48,2.61-.61,1.13-.91,2.45-.91,3.95s.3,2.83.91,3.97c.61,1.14,1.44,2.02,2.48,2.62,1.05.61,2.23.91,3.55.91s2.5-.3,3.55-.91Z"/><path class="cls-4" d="M536.61,27.46c-.51-1.17-1.28-2.08-2.32-2.75-1.04-.67-2.26-1-3.66-1-1.32,0-2.5.3-3.55.91-1.05.61-1.88,1.47-2.48,2.6-.61,1.12-.91,2.43-.91,3.92s.3,2.8.91,3.93c.61,1.13,1.44,2,2.48,2.61,1.05.61,2.23.91,3.55.91,1.23,0,2.34-.27,3.33-.8.99-.53,1.78-1.29,2.38-2.28s.94-2.14,1.03-3.46h-7.45v-1.44h9.33v1.29c-.08,1.56-.51,2.96-1.27,4.22-.76,1.26-1.78,2.25-3.05,2.98-1.28.73-2.71,1.09-4.3,1.09s-3.13-.38-4.46-1.15c-1.34-.77-2.39-1.84-3.16-3.22s-1.15-2.94-1.15-4.68.38-3.3,1.15-4.68,1.82-2.45,3.16-3.22c1.33-.77,2.82-1.15,4.46-1.15,1.89,0,3.55.47,4.97,1.42,1.42.95,2.45,2.27,3.09,3.95h-2.08Z"/><path class="cls-4" d="M554.4,22.29v17.72h-1.77v-17.72h1.77Z"/><path class="cls-4" d="M570.34,23.73v6.62h6.72v1.47h-6.72v6.72h7.48v1.47h-9.25v-17.74h9.25v1.47h-7.48Z"/><path class="cls-4" d="M593.75,39.58c-.89-.41-1.58-.97-2.09-1.7-.51-.73-.78-1.54-.81-2.43h1.88c.08.86.46,1.62,1.14,2.27.68.65,1.66.98,2.97.98,1.2,0,2.15-.31,2.85-.93.7-.62,1.05-1.4,1.05-2.34,0-.76-.2-1.37-.58-1.84-.39-.46-.87-.81-1.44-1.04-.57-.23-1.37-.48-2.38-.75-1.18-.32-2.12-.63-2.81-.94-.69-.3-1.28-.78-1.77-1.42-.49-.64-.73-1.51-.73-2.61,0-.91.24-1.73.71-2.45.47-.72,1.14-1.28,2-1.69.86-.41,1.85-.61,2.97-.61,1.64,0,2.96.4,3.97,1.2,1,.8,1.58,1.84,1.74,3.11h-1.93c-.12-.73-.52-1.37-1.19-1.94-.68-.57-1.59-.85-2.74-.85-1.06,0-1.95.28-2.66.85-.71.57-1.06,1.34-1.06,2.32,0,.74.19,1.34.58,1.8.39.46.87.8,1.46,1.04.58.24,1.37.49,2.37.76,1.15.32,2.08.64,2.79.95.71.31,1.31.79,1.8,1.43.49.64.73,1.5.73,2.59,0,.83-.22,1.61-.66,2.36s-1.09,1.34-1.95,1.8c-.86.46-1.89.68-3.09.68s-2.19-.2-3.08-.61Z"/></g></svg>