<?xml version="1.0" encoding="UTF-8"?><svg id="Capa_2" xmlns="http://www.w3.org/2000/svg" viewBox="0 0 282.7 43.67"><defs><style>.cls-1{fill:#b0ead2;}.cls-2{fill:#00ce97;}</style></defs><g id="OBJECTS"><path class="cls-2" d="M16.29,28.96c1.44,0,2.69-.2,3.76-.59,1.07-.39,2.02-.89,2.85-1.49.84-.6,1.6-1.25,2.3-1.95.7-.7,1.4-1.35,2.12-1.95.72-.6,1.51-1.1,2.37-1.49.86-.39,1.85-.59,2.96-.59v22.78h-7.17v-13.17c-1.3.99-2.81,1.79-4.53,2.39-1.72.6-3.62.9-5.71.9-2.41,0-4.57-.34-6.47-1.03-1.9-.69-3.5-1.58-4.8-2.67-1.3-1.1-2.29-2.32-2.96-3.65-.67-1.34-1.01-2.67-1.01-4.01v-4.73c0-1.34.34-2.67,1.01-4.01.67-1.34,1.66-2.55,2.96-3.65,1.3-1.1,2.9-1.99,4.8-2.67,1.9-.68,4.06-1.03,6.47-1.03,1.9,0,3.74.3,5.5.9,1.76.6,3.34,1.41,4.73,2.44l.7-2.83h6.47v10.03h-5.64c-.46-1-1.1-1.84-1.91-2.55-.81-.7-1.71-1.29-2.68-1.75-.97-.46-2-.81-3.06-1.03-1.07-.22-2.09-.33-3.06-.33-1.53,0-2.87.2-4,.59-1.14.39-2.09.91-2.85,1.54-.77.63-1.33,1.34-1.71,2.11-.37.77-.56,1.52-.56,2.24v4.73c0,.72.19,1.47.56,2.24.37.77.94,1.47,1.71,2.11.77.63,1.72,1.16,2.85,1.57,1.14.41,2.47.62,4,.62Z"/><path class="cls-2" d="M46.02,6.33v15.58c0,.72.2,1.47.59,2.24.39.77.97,1.47,1.74,2.11.77.64,1.72,1.15,2.85,1.54,1.14.39,2.45.59,3.93.59,1.39,0,2.65-.18,3.76-.54,1.11-.36,2.08-.84,2.89-1.44.81-.6,1.44-1.27,1.88-2.01.44-.74.66-1.47.66-2.19V6.33h7.17v26.44h-6.47l-.7-2.88c-1.39,1.06-2.98,1.9-4.77,2.49-1.79.6-3.63.9-5.54.9-4.87,0-8.62-.99-11.24-2.98-2.62-1.99-3.93-4.78-3.93-8.38V6.33h7.17Z"/><path class="cls-2" d="M101.93,29.98c-1.3.96-2.9,1.75-4.8,2.37-1.9.62-4.13.93-6.68.93-1.81,0-3.5-.2-5.08-.59-1.58-.39-2.95-.93-4.11-1.62-1.16-.68-2.07-1.52-2.72-2.52-.65-.99-.97-2.07-.97-3.24,0-1.34.37-2.52,1.11-3.55.74-1.03,1.74-1.89,2.99-2.6,1.25-.7,2.72-1.23,4.39-1.59,1.67-.36,3.43-.54,5.29-.54h3.55c.65,0,1.4-.06,2.26-.18.86-.12,1.69-.31,2.51-.57.81-.26,1.5-.6,2.05-1.03.56-.43.84-.93.84-1.52,0-.51-.21-.96-.63-1.34-.42-.38-.96-.69-1.64-.95-.67-.26-1.45-.45-2.33-.59-.88-.14-1.81-.21-2.78-.21-1.11,0-2.21.09-3.27.26-1.07.17-2.03.44-2.89.8-.86.36-1.56.81-2.09,1.36-.53.55-.8,1.18-.8,1.9h-7.17c0-1.54.46-2.89,1.39-4.04.93-1.15,2.13-2.1,3.62-2.85,1.48-.75,3.18-1.32,5.08-1.7,1.9-.38,3.85-.57,5.85-.57s3.75.17,5.54.51c1.79.34,3.39.86,4.8,1.54,1.42.69,2.55,1.54,3.41,2.55.86,1.01,1.29,2.2,1.29,3.57s-.46,2.47-1.39,3.39c-.93.93-2.1,1.66-3.52,2.21-1.42.55-2.95.94-4.6,1.18-1.65.24-3.19.36-4.63.36h-4.73c-.7,0-1.4.08-2.12.23-.72.15-1.39.38-2.02.67-.63.29-1.14.66-1.53,1.11-.39.45-.59.98-.59,1.59,0,.69.25,1.27.77,1.75.51.48,1.14.87,1.88,1.18.74.31,1.54.53,2.4.67.86.14,1.64.21,2.33.21,1.02,0,2.15-.13,3.38-.39,1.23-.26,2.4-.63,3.52-1.11s2.06-1.09,2.85-1.83c.79-.74,1.25-1.57,1.39-2.49h5.64v10.03h-6.34l-.7-2.78Z"/><path class="cls-2" d="M141.33,32.76v-15.58c0-.72-.19-1.47-.56-2.24-.37-.77-.94-1.47-1.71-2.11-.77-.63-1.72-1.16-2.85-1.57-1.14-.41-2.47-.62-4-.62-1.35,0-2.59.19-3.72.57-1.14.38-2.11.86-2.92,1.44-.81.58-1.44,1.25-1.88,2.01-.44.75-.66,1.49-.66,2.21v15.89h-7.17V6.33h6.47l.7,2.78c1.48-1.1,3.21-1.92,5.19-2.47,1.97-.55,4-.82,6.09-.82,1.81,0,3.57.22,5.29.67,1.72.45,3.24,1.13,4.56,2.06,1.32.93,2.38,2.11,3.17,3.55.79,1.44,1.18,3.14,1.18,5.09v15.58h-7.17Z"/><path class="cls-2" d="M176.14,33.12c-.19.03-.49.06-.91.08-.42.02-.86.03-1.32.05-.46.02-.91.03-1.32.03h-.97c-4.04,0-6.92-.76-8.63-2.29-1.72-1.53-2.58-3.87-2.58-7.02v-13.17h-7.1v-3.19c1.16,0,2.32-.11,3.48-.33,1.16-.22,2.19-.62,3.1-1.18.91-.57,1.64-1.35,2.19-2.34.56-.99.84-2.25.84-3.75h4.66v6.33h8.84v4.47h-8.84v13.06c0,1.68.44,2.8,1.32,3.37.88.57,2.27.85,4.18.85h3.9l-.84,5.04Z"/><path class="cls-1" d="M227.28,15.43c-.09.14-.2.26-.31.36-.12.1-.22.22-.31.36-.97,1.1-1.91,2.29-2.82,3.57-.91,1.29-1.87,2.56-2.89,3.83-1.02,1.27-2.14,2.49-3.34,3.65-1.21,1.17-2.59,2.2-4.14,3.11-1.56.91-3.33,1.63-5.33,2.16-2,.53-4.32.8-6.96.8-1.86,0-3.83-.23-5.92-.69-2.09-.46-3.99-1.17-5.71-2.11-1.72-.94-3.14-2.12-4.28-3.52-1.14-1.41-1.71-3.05-1.71-4.94v-4.73c0-1.34.37-2.67,1.11-4.01.74-1.34,1.79-2.55,3.13-3.65,1.35-1.1,2.99-1.99,4.94-2.67,1.95-.69,4.13-1.03,6.54-1.03h1.18c2.09,0,4.08.29,5.99.87,1.9.58,3.57,1.37,5.01,2.37,1.21.86,2.13,1.71,2.78,2.55.65.84,1.11,1.72,1.39,2.62.28.91.44,1.86.49,2.86.05.99.07,2.06.07,3.19v.72h-25.48c0,1,.22,1.94.66,2.83.44.89,1.12,1.67,2.05,2.34.93.67,2.09,1.2,3.48,1.59,1.39.39,3.02.59,4.87.59,2.69,0,5.02-.34,7-1.03,1.97-.69,3.71-1.59,5.22-2.7,1.51-1.11,2.87-2.38,4.07-3.81,1.21-1.42,2.37-2.86,3.48-4.3V6.33h6.47l.7,2.78c.88-.65,1.86-1.2,2.92-1.65l.07-.05c1.25-.58,2.58-.99,3.97-1.24,1.39-.24,2.83-.36,4.32-.36,1.81,0,3.57.22,5.29.67,1.72.45,3.24,1.13,4.56,2.06,1.32.93,2.38,2.11,3.17,3.55.79,1.44,1.18,3.14,1.18,5.09v15.58h-7.17v-15.58c0-.72-.19-1.47-.56-2.24-.37-.77-.94-1.47-1.71-2.11-.77-.63-1.72-1.16-2.85-1.57-1.14-.41-2.47-.62-4-.62-2.46,0-4.51.45-6.16,1.34-1.65.89-3.14,2.04-4.49,3.45ZM209.25,16.56c0-.89-.23-1.71-.7-2.44-.46-.74-1.1-1.36-1.91-1.88-.81-.51-1.74-.91-2.78-1.18-1.04-.27-2.15-.41-3.31-.41-1.39,0-2.67.18-3.83.54-1.16.36-2.17.82-3.03,1.39-.86.57-1.53,1.2-2.02,1.9-.49.7-.78,1.4-.87,2.08h18.45ZM228.74,18.21v14.56h-7.17v-5.25l7.17-9.31Z"/><path class="cls-1" d="M281.86,33.12c-.19.03-.49.06-.91.08-.42.02-.86.03-1.32.05-.46.02-.91.03-1.32.03h-.97c-4.04,0-6.92-.76-8.63-2.29-1.72-1.53-2.58-3.87-2.58-7.02v-13.17h-7.1v-3.19c1.16,0,2.32-.11,3.48-.33,1.16-.22,2.19-.62,3.1-1.18.91-.57,1.64-1.35,2.19-2.34.56-.99.84-2.25.84-3.75h4.66v6.33h8.84v4.47h-8.84v13.06c0,1.68.44,2.8,1.32,3.37.88.57,2.27.85,4.18.85h3.9l-.84,5.04Z"/></g></svg>
